<svg id="Group_22783" data-name="Group 22783" xmlns="http://www.w3.org/2000/svg" width="47.472" height="38.738" viewBox="0 0 47.472 38.738">
  <g id="Group_15723" data-name="Group 15723" transform="translate(17.144 30.962)">
    <path id="Path_57871" data-name="Path 57871" d="M337.941,334.892h-3.572a.585.585,0,0,1-.556-.61v-2.7a.585.585,0,0,1,.556-.61h3.572a.585.585,0,0,1,.556.61v2.7A.585.585,0,0,1,337.941,334.892Z" transform="translate(-319.942 -330.971)" fill="#fff"/>
    <g id="Group_15722" data-name="Group 15722" transform="translate(0 0.216)">
      <g id="Group_15719" data-name="Group 15719" transform="translate(7.782)">
        <g id="Group_15718" data-name="Group 15718">
          <path id="Path_57872" data-name="Path 57872" d="M282.688,333.962h-3.094a.612.612,0,0,1,0-1.219h3.094a.612.612,0,0,1,0,1.219Z" transform="translate(-279.038 -332.743)" fill="#fff"/>
        </g>
      </g>
      <g id="Group_15721" data-name="Group 15721" transform="translate(0 2.486)">
        <g id="Group_15720" data-name="Group 15720">
          <path id="Path_57873" data-name="Path 57873" d="M220.47,354.344H209.594a.612.612,0,0,1,0-1.219H220.47a.612.612,0,0,1,0,1.219Z" transform="translate(-209.038 -353.125)" fill="#fff"/>
        </g>
      </g>
    </g>
  </g>
  <path id="Path_57874" data-name="Path 57874" d="M93.778,95.738c4.69,0,8.506-4.186,8.506-9.331s-3.816-9.331-8.506-9.331-8.506,4.186-8.506,9.331a9.66,9.66,0,0,0,3.3,7.368l-11.052,9.313a.518.518,0,0,1-.677,0L55.944,85.481a1.726,1.726,0,0,1,1.647-1.546h25.5a.612.612,0,0,0,0-1.219h-25.5a2.927,2.927,0,0,0-2.779,3.049v27a2.927,2.927,0,0,0,2.779,3.049H96.763a2.927,2.927,0,0,0,2.779-3.049V96.651a.558.558,0,1,0-1.112,0v14.877L83.878,99.265l5.663-4.772A7.886,7.886,0,0,0,93.778,95.738Zm-23.3,3.527L55.924,111.528V87Zm27.933,13.782a1.725,1.725,0,0,1-1.646,1.547H57.591a1.725,1.725,0,0,1-1.646-1.547l15.443-13.013,4.773,4.022a1.554,1.554,0,0,0,2.032,0l4.773-4.022ZM86.383,86.407c0-4.473,3.317-8.112,7.394-8.112s7.394,3.639,7.394,8.112-3.317,8.112-7.394,8.112S86.383,90.88,86.383,86.407Z" transform="translate(-54.812 -77.076)" fill="#fff"/>
  <path id="Path_57875" data-name="Path 57875" d="M373.757,123.106l1.135,2.974-1.135,2.974a.583.583,0,0,0,.731.8l6.85-3.21a.635.635,0,0,0,0-1.121l-6.85-3.21A.583.583,0,0,0,373.757,123.106Z" transform="translate(-338.261 -116.749)" fill="#fff"/>
</svg>
