<svg xmlns="http://www.w3.org/2000/svg" width="34.923" height="38.434" viewBox="0 0 34.923 38.434">
  <g id="Group_22784" data-name="Group 22784" transform="translate(0.001 0)">
    <path id="Path_57859" data-name="Path 57859" d="M-1690.9-31.271c-1.621-.373-3.271-.633-4.858-1.136-8.768-2.779-15.338-8.771-20.284-17.021a34.755,34.755,0,0,1-4.774-14.554,1.973,1.973,0,0,1,1.043-2.109q3.256-1.687,6.517-3.361a1.637,1.637,0,0,1,2.35.738q2.043,3.456,4.064,6.926a2.029,2.029,0,0,1-.261,2.528c-.767.852-1.529,1.711-2.322,2.534a1.252,1.252,0,0,0-.337,1.2,14.241,14.241,0,0,0,2.192,5.481,14.537,14.537,0,0,0,8.405,6.437,1.375,1.375,0,0,0,1.623-.515c.651-.815,1.386-1.55,2.089-2.313a1.617,1.617,0,0,1,2.37-.274q3.144,2.206,6.278,4.43a1.974,1.974,0,0,1,.677,2.54q-1.536,3.626-3.1,7.234A2.029,2.029,0,0,1-1690.9-31.271Zm-7.561-10.922c-.094-.014-.267-.034-.439-.067a13.76,13.76,0,0,1-7.075-3.921,16.942,16.942,0,0,1-4.914-8.955,2.565,2.565,0,0,1,.657-2.514c.771-.778,1.491-1.616,2.229-2.432.386-.427.406-.618.107-1.13q-1.959-3.345-3.926-6.684c-.326-.552-.515-.61-1.05-.336-2.1,1.076-4.184,2.166-6.285,3.229a.915.915,0,0,0-.492,1.079,34.813,34.813,0,0,0,2.839,10.41,38.948,38.948,0,0,0,10.289,13.658,29.189,29.189,0,0,0,15.44,7.168.727.727,0,0,0,.866-.515q1.468-3.449,2.949-6.892c.274-.64.239-.806-.3-1.188q-3.042-2.16-6.092-4.307c-.456-.321-.647-.294-1.034.127q-1.193,1.3-2.377,2.61A1.823,1.823,0,0,1-1698.456-42.194Z" transform="translate(1720.826 69.705)" fill="#fff"/>
    <path id="Path_57860" data-name="Path 57860" d="M-1522.142-50.953a2.047,2.047,0,0,1-.618,1.7,1.543,1.543,0,0,1-1.838.3,1.869,1.869,0,0,1-1.055-1.78,16.15,16.15,0,0,0-.943-5.473c-1.93-5.149-5.379-8.344-10.339-9.523a18.589,18.589,0,0,0-2.731-.3,1.828,1.828,0,0,1-1.642-1.406,1.9,1.9,0,0,1,.7-2.091,2,2,0,0,1,1.066-.331,16.618,16.618,0,0,1,13.523,7.172A20.152,20.152,0,0,1-1522.142-50.953Zm-1.173-.6a18.824,18.824,0,0,0-1.306-6.127c-2.37-5.776-6.395-9.335-12.057-10.608a21.664,21.664,0,0,0-2.863-.311.517.517,0,0,0-.616.469.98.98,0,0,0,.207.664.838.838,0,0,0,.571.147,13.094,13.094,0,0,1,4.951,1.018,15.9,15.9,0,0,1,9.319,10.912,17.047,17.047,0,0,1,.622,4.529c.005.511.228.781.593.773s.57-.294.577-.8C-1523.312-51.1-1523.314-51.327-1523.314-51.551Z" transform="translate(1557.055 69.859)" fill="#fff"/>
    <path id="Path_57861" data-name="Path 57861" d="M-1539.2-3.328c5.559.2,10.309,4.9,11.068,10.978a15.287,15.287,0,0,1,.114,1.813,1.826,1.826,0,0,1-1.621,1.9,1.812,1.812,0,0,1-1.848-1.7A21.947,21.947,0,0,0-1532,6.474,8.217,8.217,0,0,0-1539.1.53c-.232-.015-.466-.015-.7-.043A1.86,1.86,0,0,1-1541.4-1.53a1.826,1.826,0,0,1,1.812-1.8Zm-.047,1.28h-.305a.588.588,0,0,0-.666.589.608.608,0,0,0,.627.684c.188.018.378.023.566.037A9.506,9.506,0,0,1-1530.65,6.9a21.865,21.865,0,0,1,.312,2.505c.037.333.152.636.474.634a.9.9,0,0,0,.6-.322c.1-.121.081-.392.078-.594C-1529.285,3.155-1533.809-1.859-1539.247-2.048Z" transform="translate(1557.082 9.704)" fill="#fff"/>
  </g>
</svg>
